Coordinates
version=1
nRows=12
nColumns=44
inDegrees=yes

Units are S.I. units (second, meters, Newtons, ...)
If the header above contains a line with 'inDegrees', this indicates whether rotational values are in degrees (yes) or radians (no).

endheader
time	pelvis_tilt	pelvis_list	pelvis_rotation	pelvis_tx	pelvis_ty	pelvis_tz	hip_flexion_r	hip_adduction_r	hip_rotation_r	knee_angle_r	knee_frontal_r	knee_adduction_r	knee_angle_r_beta	ankle_angle_r	subtalar_angle_r	mtp_angle_r	hip_flexion_l	hip_adduction_l	hip_rotation_l	knee_angle_l	knee_frontal_l	knee_adduction_l	knee_angle_l_beta	ankle_angle_l	subtalar_angle_l	mtp_angle_l	lumbar_extension	lumbar_bending	lumbar_rotation	arm_flex_r	arm_add_r	arm_rot_r	elbow_flex_r	pro_sup_r	wrist_flex_r	wrist_dev_r	arm_flex_l	arm_add_l	arm_rot_l	elbow_flex_l	pro_sup_l	wrist_flex_l	wrist_dev_l
      3.00000000	     -6.92835665	      1.69561292	     -4.68726437	      0.82743878	      0.96419090	      0.46840759	     25.33908468	     -2.82746083	      5.25545069	     69.43938552	      0.00000000	      0.00000000	      1.21194591	     -4.86313211	     -2.89020893	    -14.38732436	     17.33534904	      1.99710122	      1.54466659	     20.07919257	      0.00000000	      0.00000000	      0.35044802	      7.30925020	     -6.35749170	     -9.79551521	     -3.60155158	      0.90322041	     -0.00259454	     -0.06279204	    -16.13608219	      0.67370609	     35.88632381	     90.00000001	      0.00000000	      0.00000000	     -8.62279050	    -18.30700691	      6.48449431	     40.73048174	     90.00000001	      0.00000000	      0.00000000
      3.00500000	     -6.92120460	      1.67450707	     -4.71737736	      0.82682782	      0.96462677	      0.46825335	     26.01492659	     -2.61089964	      5.43942815	     69.20985476	      0.00000000	      0.00000000	      1.20793984	     -4.00805532	     -3.02975305	    -14.55737708	     16.91826562	      2.00717552	      1.50751994	     19.99275479	      0.00000000	      0.00000000	      0.34893940	      7.52377025	     -6.38111471	     -9.82800358	     -3.65439132	      1.04307441	      0.00327522	     -0.35273788	    -16.12656171	      0.66667594	     35.74297602	     90.00000001	      0.00000000	      0.00000000	     -8.19894766	    -18.45481683	      6.44284774	     40.93192300	     90.00000001	      0.00000000	      0.00000000
      3.01000000	     -6.93358927	      1.65159011	     -4.75793095	      0.82607854	      0.96507619	      0.46826270	     26.69842449	     -2.39846387	      5.58535774	     68.89084621	      0.00000000	      0.00000000	      1.20237209	     -3.17415200	     -3.08160942	    -14.72899870	     16.51060617	      2.00089767	      1.49655872	     19.87047952	      0.00000000	      0.00000000	      0.34680529	      7.70162390	     -6.32728668	     -9.85525835	     -3.68285989	      1.14118868	      0.00549502	     -0.63144516	    -16.14522273	      0.65608151	     35.60031539	     90.00000001	      0.00000000	      0.00000000	     -7.77268687	    -18.62414952	      6.39838190	     41.16433317	     90.00000001	      0.00000000	      0.00000000
      3.01500000	     -7.11092571	      1.53922645	     -4.54189424	      0.82607045	      0.96593265	      0.46828916	     27.33102843	     -2.24158403	      5.34094482	     68.25669668	      0.00000000	      0.00000000	      1.19130409	     -2.33108578	     -3.21449613	    -14.78484727	     16.05156900	      1.90573334	      1.68273063	     19.37283391	      0.00000000	      0.00000000	      0.33811974	      7.76837760	     -5.87581257	     -9.79637471	     -3.39856153	      1.25990365	      0.00404458	     -1.08588195	    -16.00467811	      0.59279842	     35.01914574	     90.00000001	      0.00000000	      0.00000000	     -7.56213269	    -18.89312162	      6.36764142	     41.97178732	     90.00000001	      0.00000000	      0.00000000
      3.02000000	     -7.11534840	      1.54748387	     -4.62115636	      0.82529573	      0.96616652	      0.46811344	     27.98957428	     -2.11029721	      5.47248263	     67.82636446	      0.00000000	      0.00000000	      1.18379338	     -1.47999521	     -3.28995411	    -14.95000712	     15.67234950	      1.94281192	      1.67023259	     19.31858852	      0.00000000	      0.00000000	      0.33717298	      7.98574814	     -5.90507247	     -9.83168138	     -3.43808936	      1.33804716	      0.00153984	     -1.31783941	    -16.02477182	      0.56716658	     34.88425405	     90.00000001	      0.00000000	      0.00000000	     -7.15627995	    -19.04403135	      6.33437192	     42.21141433	     90.00000001	      0.00000000	      0.00000000
      3.02500000	     -7.14675485	      1.55356236	     -4.65529665	      0.82447115	      0.96652668	      0.46799624	     28.63309000	     -1.98778532	      5.58267250	     67.27957593	      0.00000000	      0.00000000	      1.17425012	     -0.67596307	     -3.30592258	    -15.08421947	     15.30655126	      1.97176626	      1.63701238	     19.21231944	      0.00000000	      0.00000000	      0.33531823	      8.12171104	     -5.85008696	     -9.86263775	     -3.45199766	      1.39926041	      0.00062505	     -1.59982791	    -16.03129480	      0.54019846	     34.72415066	     90.00000001	      0.00000000	      0.00000000	     -6.74409298	    -19.21369382	      6.29767963	     42.50542892	     90.00000001	      0.00000000	      0.00000000
      3.03000000	     -7.19535101	      1.59128586	     -4.69126189	      0.82373249	      0.96679456	      0.46786171	     29.24921227	     -1.93268105	      5.61937518	     66.63717924	      0.00000000	      0.00000000	      1.16303818	      0.02560355	     -3.36691880	    -15.21651932	     14.93181171	      2.03173824	      1.63116033	     19.07584129	      0.00000000	      0.00000000	      0.33293624	      8.28185804	     -5.75794442	     -9.90472659	     -3.42746961	      1.43594042	     -0.00066680	     -1.86713551	    -16.02616216	      0.51362438	     34.56764142	     90.00000001	      0.00000000	      0.00000000	     -6.36551615	    -19.39205491	      6.25986050	     42.82341194	     90.00000001	      0.00000000	      0.00000000
      3.03500000	     -7.24799205	      1.32525247	     -4.20194703	      0.82398121	      0.96777294	      0.46778732	     29.61928431	     -1.95382320	      4.78875976	     65.76889035	      0.00000000	      0.00000000	      1.14788368	      1.23877848	     -2.94138491	    -13.59458754	     14.33215794	      1.84160788	      2.17321010	     18.56989882	      0.00000000	      0.00000000	      0.32410588	      8.30078584	     -5.48648503	     -9.94141030	     -3.30330050	      1.68718107	      0.00147917	     -2.29682049	    -15.74959194	     -0.14190385	     33.55638635	     90.00000001	      0.00000000	      0.00000000	     -6.32486674	    -19.84340224	      6.51999023	     44.67025916	     90.00000001	      0.00000000	      0.00000000
      3.04000000	     -7.22497627	      1.42769245	     -4.26265229	      0.82309474	      0.96783210	      0.46742801	     30.24255818	     -1.97491513	      4.98532577	     65.14387151	      0.00000000	      0.00000000	      1.13697505	      1.65152724	     -2.96233586	    -13.64606858	     13.97191999	      2.00014136	      2.10177925	     18.58289682	      0.00000000	      0.00000000	      0.32433273	      8.55395713	     -5.55386556	    -10.01089305	     -3.33206609	      1.70638971	     -0.00454544	     -2.48714458	    -15.76411535	     -0.16046449	     33.50604482	     90.00000001	      0.00000000	      0.00000000	     -5.92763038	    -19.99537094	      6.47907940	     44.82873811	     90.00000001	      0.00000000	      0.00000000
      3.04500000	     -7.39728629	      1.40954764	     -4.10187350	      0.82282647	      0.96849852	      0.46788311	     30.75220473	     -1.82798763	      4.90294443	     64.06313231	      0.00000000	      0.00000000	      1.11811259	      2.12615978	     -3.49482592	    -13.69933039	     13.52241669	      1.93628313	      2.15452681	     18.07019491	      0.00000000	      0.00000000	      0.31538440	      8.48731257	     -5.03616178	    -10.10485346	     -3.15700668	      1.65771885	     -0.00009612	     -2.97200384	    -15.61389794	     -0.26631262	     33.26934317	     90.00000001	      0.00000000	      0.00000000	     -5.53811248	    -20.26719980	      6.45350747	     45.38035619	     90.00000001	      0.00000000	      0.00000000
      3.05000000	     -7.40757348	      1.50639424	     -4.17645180	      0.82197631	      0.96852653	      0.46767263	     31.31103778	     -1.85827592	      4.99559996	     63.22307977	      0.00000000	      0.00000000	      1.10345091	      2.59029353	     -3.57147429	    -13.76536798	     13.17990008	      2.06740729	      2.08391070	     18.04829640	      0.00000000	      0.00000000	      0.31500220	      8.64016961	     -5.07032234	    -10.16833712	     -3.16241733	      1.62904418	      0.00367534	     -3.20706028	    -15.65710148	     -0.32375200	     33.16246299	     90.00000001	      0.00000000	      0.00000000	     -5.14618129	    -20.41865029	      6.42702729	     45.65211230	     90.00000001	      0.00000000	      0.00000000
      3.05500000	     -7.53976028	      1.46290185	     -4.03698013	      0.82147118	      0.96898587	      0.46774583	     31.80270031	     -1.80900357	      4.81446411	     62.08396588	      0.00000000	      0.00000000	      1.08356962	      2.77265206	     -3.92617147	    -13.72534462	     12.74535445	      2.02363749	      2.18497537	     17.61434093	      0.00000000	      0.00000000	      0.30742824	      8.67028278	     -4.78572979	    -10.25801207	     -3.02177432	      1.67419225	      0.00168732	     -3.56909854	    -15.53508108	     -0.44031821	     32.91324149	     90.00000001	      0.00000000	      0.00000000	     -4.82544456	    -20.65494308	      6.41571566	     46.30209047	     90.00000001	      0.00000000	      0.00000000
